Coordinates
version=1
nRows=5
nColumns=40
inDegrees=yes

Units are S.I. units (second, meters, Newtons, ...)
Angles are in degrees.

endheader
time	pelvis_tilt	pelvis_list	pelvis_rotation	pelvis_tx	pelvis_ty	pelvis_tz	hip_flexion_r	hip_adduction_r	hip_rotation_r	knee_angle_r	knee_angle_r_beta	ankle_angle_r	subtalar_angle_r	mtp_angle_r	hip_flexion_l	hip_adduction_l	hip_rotation_l	knee_angle_l	knee_angle_l_beta	ankle_angle_l	subtalar_angle_l	mtp_angle_l	lumbar_extension	lumbar_bending	lumbar_rotation	arm_flex_r	arm_add_r	arm_rot_r	elbow_flex_r	pro_sup_r	wrist_flex_r	wrist_dev_r	arm_flex_l	arm_add_l	arm_rot_l	elbow_flex_l	pro_sup_l	wrist_flex_l	wrist_dev_l
     23.86500000	     -3.14649259	     -5.18531492	    -12.28979573	      0.95299250	      0.92418929	      0.51336100	     18.61851898	      3.16997682	     -7.29563977	     23.62484760	     23.62484760	      8.09149770	     -5.49931972	     -2.31572037	     -3.45804001	     -9.01877127	    -13.43785278	     26.56344408	     26.56344408	     17.36945462	    -12.55104852	     -4.21220663	     -9.49604067	      9.66753582	     -0.33632103	     -5.32156302	    -12.43904758	    -21.60058534	     40.61587279	     46.70541862	      0.00000000	      0.00000000	     28.21563764	    -18.19854786	    -11.09672716	     84.32439147	     48.26762460	      0.00000000	      0.00000000
     23.88314286	     -3.10750522	     -5.32541634	    -12.07570161	      0.95481885	      0.92559217	      0.51857862	     17.69633888	      3.56209719	     -7.61022475	     23.09789900	     23.09789900	      8.34209859	     -5.30584443	     -2.19240861	     -2.88631490	     -9.79538194	    -13.06788161	     28.57810311	     28.57810311	     16.25847225	    -13.15549969	     -4.66216282	     -9.38784312	      9.51430374	     -0.23297058	     -4.45551131	    -12.76013464	    -21.36902470	     41.23919954	     46.66815970	      0.00000000	      0.00000000	     27.22079761	    -17.59985896	    -10.76630329	     83.68253394	     48.22760503	      0.00000000	      0.00000000
     23.90128571	     -3.08325292	     -5.46734602	    -11.84440128	      0.95646370	      0.92675319	      0.52369334	     16.86740871	      3.96969310	     -7.82021245	     22.69396477	     22.69396477	      8.76044504	     -5.21870840	     -1.55272449	     -2.34131864	    -10.61973658	    -12.78631022	     30.32194385	     30.32194385	     13.44826717	    -14.45259634	     -8.96416405	     -9.22816572	      9.39370519	     -0.12753519	     -4.51598010	    -13.51811814	    -19.00925726	     44.11604558	     46.38178004	      0.00000000	      0.00000000	     26.31915845	    -16.69583274	    -10.99231372	     81.94712757	     48.19982308	      0.00000000	      0.00000000
     23.91942857	     -3.02009701	     -5.58316204	    -11.57729019	      0.95793110	      0.92784020	      0.52864188	     16.01097574	      4.32404345	     -8.09495674	     22.26551887	     22.26551887	      9.00857021	     -5.15232233	     -1.48545767	     -1.52329738	    -11.41729185	    -12.25218148	     32.68670329	     32.68670329	     12.12703678	    -15.00528061	     -9.35179751	     -9.13602093	      9.19411299	     -0.16372061	     -3.54260342	    -13.81730728	    -18.88014269	     44.86320155	     46.34803230	      0.00000000	      0.00000000	     24.95827335	    -16.13173841	    -10.73653574	     81.00720245	     48.15628080	      0.00000000	      0.00000000
     23.93757143	     -2.97097563	     -5.62730298	    -11.28000354	      0.95922006	      0.92865905	      0.53334133	     15.29895862	      4.60892374	     -8.25015154	     22.02022030	     22.02022030	      9.34466085	     -5.32573420	     -1.30895583	     -0.58370458	    -12.11011591	    -11.57191422	     35.07614114	     35.07614114	     10.18314168	    -15.93897662	    -10.76351382	     -8.96543087	      8.98052124	     -0.49389358	     -2.78467431	    -14.18153390	    -18.08259522	     46.82577808	     46.22552384	      0.00000000	      0.00000000	     23.54385154	    -15.55254292	    -11.01460647	     78.91604202	     48.12431156	      0.00000000	      0.00000000
